<svg xmlns="http://www.w3.org/2000/svg" viewBox="0 0 900 500" width="100%" height="100%" role="img" aria-labelledby="title-team-portrait"><title id="title-team-portrait">Team portrait illustration — Carolina Futons team photographs in rustic hand-illustrated frames before layered Blue Ridge mountains at golden hour</title><defs><linearGradient id="team-sky" x1="0" y1="0" x2="0" y2="1"><stop offset="0%" stop-color="#B8D4E3"/><stop offset="12%" stop-color="#A8CCD8"/><stop offset="28%" stop-color="#B8D4E3" stop-opacity="0.8"/><stop offset="42%" stop-color="#F2E8D5"/><stop offset="56%" stop-color="#F2A882"/><stop offset="70%" stop-color="#F0C87A"/><stop offset="82%" stop-color="#F2A882" stop-opacity="0.6"/><stop offset="92%" stop-color="#E8D5B7"/><stop offset="100%" stop-color="#FAF7F2"/></linearGradient><radialGradient id="team-sun-glow" cx="55%" cy="28%" r="45%"><stop offset="0%" stop-color="#F0C87A" stop-opacity="0.8"/><stop offset="18%" stop-color="#F2A882" stop-opacity="0.55"/><stop offset="40%" stop-color="#F2E8D5" stop-opacity="0.25"/><stop offset="70%" stop-color="#A8CCD8" stop-opacity="0.08"/><stop offset="100%" stop-color="#F2E8D5" stop-opacity="0"/></radialGradient><linearGradient id="team-haze-blue" x1="0" y1="0" x2="0" y2="1"><stop offset="0%" stop-color="#A8CCD8" stop-opacity="0.08"/><stop offset="50%" stop-color="#5B8FA8" stop-opacity="0.18"/><stop offset="100%" stop-color="#A8CCD8" stop-opacity="0.35"/></linearGradient><linearGradient id="team-haze-warm" x1="0" y1="0" x2="0" y2="1"><stop offset="0%" stop-color="#F2A882" stop-opacity="0"/><stop offset="100%" stop-color="#F2E8D5" stop-opacity="0.3"/></linearGradient><linearGradient id="team-ground" x1="0" y1="0" x2="0" y2="1"><stop offset="0%" stop-color="#E8D5B7"/><stop offset="40%" stop-color="#D4BC96"/><stop offset="75%" stop-color="#5C4033"/><stop offset="100%" stop-color="#3A2518" stop-opacity="0.6"/></linearGradient><linearGradient id="team-ridge-far" x1="0" y1="0" x2="0" y2="1"><stop offset="0%" stop-color="#A8CCD8"/><stop offset="100%" stop-color="#B8D4E3" stop-opacity="0.5"/></linearGradient><linearGradient id="team-ridge-mid" x1="0" y1="0" x2="0" y2="1"><stop offset="0%" stop-color="#5B8FA8"/><stop offset="100%" stop-color="#3D6B80" stop-opacity="0.7"/></linearGradient><linearGradient id="team-ridge-near" x1="0" y1="0" x2="0" y2="1"><stop offset="0%" stop-color="#3D6B80"/><stop offset="100%" stop-color="#5C4033" stop-opacity="0.5"/></linearGradient></defs><g><g id="background"><rect x="0" y="0" width="900" height="500" fill="url(#team-sky)"/><rect x="0" y="0" width="900" height="500" fill="url(#team-sun-glow)"/><ellipse cx="680" cy="55" rx="62" ry="22" fill="#FAF7F2" opacity="0.5"/><ellipse cx="720" cy="48" rx="48" ry="16" fill="#F2E8D5" opacity="0.4"/><ellipse cx="160" cy="80" rx="70" ry="22" fill="#FAF7F2" opacity="0.45"/><ellipse cx="195" cy="72" rx="50" ry="16" fill="#FFFFFF" opacity="0.3"/><ellipse cx="440" cy="42" rx="55" ry="18" fill="#FAF7F2" opacity="0.35"/><path d="M760 42 Q768 33 776 40 Q784 30 792 37 Q796 28 806 36 Q800 44 792 41 Q785 47 778 42 Q770 48 762 44Z" fill="#FAF7F2" opacity="0.45"/><line x1="250" y1="38" x2="259" y2="30" stroke="#3A2518" stroke-width="1.4" opacity="0.28"/><line x1="259" y1="30" x2="268" y2="38" stroke="#3A2518" stroke-width="1.4" opacity="0.28"/><line x1="275" y1="44" x2="283" y2="37" stroke="#3A2518" stroke-width="1.1" opacity="0.22"/><line x1="283" y1="37" x2="291" y2="44" stroke="#3A2518" stroke-width="1.1" opacity="0.22"/><line x1="570" y1="28" x2="577" y2="22" stroke="#3A2518" stroke-width="1.1" opacity="0.22"/><line x1="577" y1="22" x2="584" y2="28" stroke="#3A2518" stroke-width="1.1" opacity="0.22"/><line x1="420" y1="48" x2="426" y2="42" stroke="#3A2518" stroke-width="1" opacity="0.2"/><line x1="426" y1="42" x2="432" y2="48" stroke="#3A2518" stroke-width="1" opacity="0.2"/><line x1="340" y1="55" x2="345" y2="50" stroke="#3A2518" stroke-width="0.9" opacity="0.18"/><line x1="345" y1="50" x2="350" y2="55" stroke="#3A2518" stroke-width="0.9" opacity="0.18"/><line x1="810" y1="62" x2="815" y2="57" stroke="#3A2518" stroke-width="0.9" opacity="0.16"/><line x1="815" y1="57" x2="820" y2="62" stroke="#3A2518" stroke-width="0.9" opacity="0.16"/></g><g id="midground"><path id="mountain-ridge-7" d="M0 228 Q18 220 38 222 Q58 212 82 218 Q108 205 138 212 Q168 200 202 208 Q238 195 278 205 Q318 192 358 202 Q398 190 442 200 Q482 188 525 198 Q568 185 612 195 Q658 182 702 192 Q748 180 792 190 Q838 178 878 188 Q892 182 900 185 L900 290 L0 290Z" fill="url(#team-ridge-far)" opacity="0.22"/><rect x="0" y="225" width="900" height="45" fill="url(#team-haze-blue)" opacity="0.5"/><path id="mountain-ridge-6" d="M0 248 Q25 235 55 240 Q85 225 120 234 Q155 218 195 228 Q235 212 280 224 Q325 208 370 220 Q418 205 465 218 Q512 202 560 215 Q608 200 655 212 Q702 198 750 210 Q798 195 842 208 Q872 198 900 205 L900 308 L0 308Z" fill="#A8CCD8" opacity="0.28"/><rect x="0" y="248" width="900" height="40" fill="url(#team-haze-blue)" opacity="0.45"/><rect x="0" y="255" width="900" height="30" fill="url(#team-haze-warm)" opacity="0.2"/><path id="mountain-ridge-5" d="M0 268 Q30 250 68 258 Q108 238 152 250 Q198 232 248 245 Q298 228 348 242 Q398 225 452 238 Q505 222 558 235 Q612 218 668 232 Q722 215 778 228 Q832 212 878 225 Q895 218 900 222 L900 320 L0 320Z" fill="#5B8FA8" opacity="0.3"/><rect x="0" y="268" width="900" height="35" fill="url(#team-haze-blue)" opacity="0.38"/><path id="mountain-ridge-4" d="M0 288 Q35 268 78 278 Q122 258 172 270 Q222 252 278 265 Q332 248 390 260 Q448 242 508 258 Q568 240 628 255 Q688 238 748 252 Q808 235 862 248 Q888 240 900 245 L900 338 L0 338Z" fill="#5B8FA8" opacity="0.38"/><rect x="0" y="288" width="900" height="30" fill="url(#team-haze-blue)" opacity="0.3"/><path id="mountain-ridge-3" d="M0 305 Q40 288 88 296 Q138 275 195 288 Q252 270 315 282 Q378 265 445 278 Q512 260 580 275 Q648 258 718 272 Q788 255 852 268 Q880 260 900 265 L900 355 L0 355Z" fill="url(#team-ridge-mid)" opacity="0.42"/><rect x="0" y="305" width="900" height="28" fill="url(#team-haze-blue)" opacity="0.22"/><path id="mountain-ridge-2" d="M0 322 Q45 305 100 312 Q158 292 225 305 Q292 285 365 298 Q438 280 515 295 Q592 278 668 292 Q745 275 818 288 Q862 278 900 285 L900 370 L0 370Z" fill="url(#team-ridge-near)" opacity="0.48"/><path id="tree-pine-1" d="M62 348 L68 328 L70 322 L72 318 L74 314 L77 318 L80 324 L82 330 L88 348Z" fill="#4A7C59" opacity="0.5"/><path id="tree-pine-2" d="M145 342 L150 324 L152 318 L154 314 L156 310 L159 315 L162 322 L164 328 L170 342Z" fill="#4A7C59" opacity="0.42"/><path id="tree-pine-3" d="M105 350 L110 334 L112 330 L115 334 L120 350Z" fill="#4A7C59" opacity="0.38"/><path id="tree-pine-4" d="M780 340 L785 322 L787 316 L789 312 L792 316 L795 322 L800 340Z" fill="#4A7C59" opacity="0.48"/><path id="tree-pine-5" d="M820 346 L825 330 L827 326 L830 330 L835 346Z" fill="#4A7C59" opacity="0.4"/><path id="tree-pine-6" d="M852 344 L856 328 L858 324 L860 320 L863 324 L866 330 L870 344Z" fill="#4A7C59" opacity="0.36"/><path id="tree-pine-7" d="M38 352 L42 340 L44 338 L47 340 L50 352Z" fill="#4A7C59" opacity="0.32"/><path id="tree-pine-8" d="M755 345 L759 332 L761 330 L764 332 L768 345Z" fill="#4A7C59" opacity="0.34"/></g><g id="foreground"><path d="M0 368 Q60 355 140 360 Q230 348 340 355 Q460 342 570 352 Q690 340 800 350 Q860 344 900 348 L900 500 L0 500Z" fill="url(#team-ground)"/><line x1="500" y1="140" x2="300" y2="360" stroke="#F0C87A" stroke-width="2" opacity="0.06"/><line x1="500" y1="140" x2="500" y2="360" stroke="#F0C87A" stroke-width="1.5" opacity="0.05"/><line x1="500" y1="140" x2="700" y2="360" stroke="#F0C87A" stroke-width="2" opacity="0.06"/><g id="team-frame-1" transform="translate(165, 340) rotate(-4)"><ellipse cx="5" cy="82" rx="72" ry="8" fill="#3A2518" opacity="0.15"/><path id="frame-border-1" d="M-68 -72 Q-66 -74 -30 -73 Q0 -75 35 -73 Q60 -74 68 -71 Q71 -68 70 -35 Q72 0 70 30 Q71 60 69 72 Q66 75 35 73 Q0 76 -32 74 Q-65 75 -68 72 Q-71 68 -70 35 Q-72 0 -70 -35 Q-71 -65 -68 -72Z" fill="#FAF7F2" stroke="#3A2518" stroke-width="2.5" opacity="0.92"/><path d="M-56 -60 Q-54 -62 -10 -61 Q20 -62 54 -60 Q57 -58 56 -20 Q57 15 56 48 Q54 51 15 50 Q-15 51 -54 49 Q-57 47 -56 10 Q-57 -25 -56 -60Z" fill="#D4BC96" opacity="0.6"/><ellipse cx="-18" cy="-12" rx="9" ry="11" fill="#5C4033" opacity="0.5"/><path d="M-28 -1 Q-30 12 -26 28 Q-20 32 -18 32 Q-16 32 -10 28 Q-6 12 -8 -1Z" fill="#5C4033" opacity="0.45"/><ellipse cx="2" cy="-16" rx="10" ry="12" fill="#5C4033" opacity="0.55"/><path d="M-8 -4 Q-10 10 -7 30 Q-2 34 2 34 Q6 34 11 30 Q14 10 12 -4Z" fill="#5C4033" opacity="0.48"/><ellipse cx="22" cy="-10" rx="9" ry="11" fill="#5C4033" opacity="0.5"/><path d="M12 1 Q10 14 13 28 Q18 32 22 32 Q26 32 31 28 Q34 14 32 1Z" fill="#5C4033" opacity="0.42"/><path d="M-62 -68 L-42 -82 L-38 -78 L-58 -64Z" fill="#E8D5B7" opacity="0.7"/><path d="M62 -68 L42 -82 L38 -78 L58 -64Z" fill="#E8D5B7" opacity="0.65"/></g><g id="team-frame-2" transform="translate(450, 330) rotate(2)"><ellipse cx="5" cy="92" rx="82" ry="9" fill="#3A2518" opacity="0.15"/><path id="frame-border-2" d="M-78 -82 Q-76 -85 -35 -83 Q0 -86 40 -83 Q72 -85 78 -81 Q82 -78 80 -40 Q82 0 80 38 Q82 70 79 82 Q76 85 38 83 Q0 86 -36 84 Q-74 86 -78 82 Q-82 78 -80 38 Q-82 0 -80 -40 Q-82 -75 -78 -82Z" fill="#FAF7F2" stroke="#3A2518" stroke-width="2.8" opacity="0.94"/><path d="M-64 -68 Q-62 -71 -15 -69 Q20 -71 62 -69 Q65 -66 64 -25 Q65 15 64 56 Q62 59 18 58 Q-12 59 -62 57 Q-65 55 -64 15 Q-65 -30 -64 -68Z" fill="#D4BC96" opacity="0.6"/><ellipse cx="-36" cy="-10" rx="8" ry="10" fill="#5C4033" opacity="0.48"/><path d="M-44 2 Q-46 14 -42 28 Q-38 31 -36 31 Q-34 31 -30 28 Q-26 14 -28 2Z" fill="#5C4033" opacity="0.4"/><ellipse cx="-14" cy="-18" rx="9" ry="11" fill="#5C4033" opacity="0.52"/><path d="M-23 -6 Q-25 8 -22 26 Q-17 30 -14 30 Q-11 30 -6 26 Q-3 8 -5 -6Z" fill="#5C4033" opacity="0.44"/><ellipse cx="8" cy="-14" rx="10" ry="12" fill="#5C4033" opacity="0.55"/><path d="M-2 -2 Q-4 12 0 30 Q5 34 8 34 Q11 34 16 30 Q20 12 18 -2Z" fill="#5C4033" opacity="0.48"/><ellipse cx="30" cy="-16" rx="9" ry="11" fill="#5C4033" opacity="0.5"/><path d="M21 -4 Q19 10 22 28 Q27 32 30 32 Q33 32 38 28 Q41 10 39 -4Z" fill="#5C4033" opacity="0.42"/><ellipse cx="50" cy="-8" rx="8" ry="10" fill="#5C4033" opacity="0.46"/><path d="M42 4 Q40 16 43 28 Q47 31 50 31 Q53 31 57 28 Q60 16 58 4Z" fill="#5C4033" opacity="0.38"/><circle cx="0" cy="-80" r="5" fill="#E8845C" opacity="0.75"/><circle cx="0" cy="-80" r="2" fill="#FAF7F2" opacity="0.6"/></g><g id="team-frame-3" transform="translate(720, 345) rotate(5)"><ellipse cx="4" cy="78" rx="68" ry="7" fill="#3A2518" opacity="0.14"/><path id="frame-border-3" d="M-64 -68 Q-62 -71 -28 -69 Q0 -72 32 -69 Q58 -71 64 -67 Q67 -64 66 -32 Q68 0 66 28 Q67 56 65 68 Q62 71 30 69 Q0 72 -30 70 Q-60 72 -64 68 Q-67 64 -66 32 Q-68 0 -66 -32 Q-67 -62 -64 -68Z" fill="#FAF7F2" stroke="#3A2518" stroke-width="2.5" opacity="0.92"/><path d="M-52 -56 Q-50 -58 -10 -57 Q18 -58 50 -56 Q53 -54 52 -18 Q53 12 52 44 Q50 47 14 46 Q-12 47 -50 45 Q-53 43 -52 8 Q-53 -22 -52 -56Z" fill="#D4BC96" opacity="0.6"/><ellipse cx="-16" cy="-10" rx="9" ry="11" fill="#5C4033" opacity="0.5"/><path d="M-26 2 Q-28 16 -24 32 Q-19 36 -16 36 Q-13 36 -8 32 Q-4 16 -6 2Z" fill="#5C4033" opacity="0.44"/><ellipse cx="18" cy="-8" rx="9" ry="11" fill="#5C4033" opacity="0.48"/><path d="M8 4 Q6 18 10 32 Q15 36 18 36 Q21 36 26 32 Q30 18 28 4Z" fill="#5C4033" opacity="0.42"/><path d="M-40 38 Q-20 36 0 37 Q20 35 40 38" fill="none" stroke="#5C4033" stroke-width="1.5" opacity="0.3"/><path d="M58 -64 L38 -78 L34 -74 L54 -60Z" fill="#E8D5B7" opacity="0.68"/><path d="M-58 62 L-42 76 L-38 72 L-54 58Z" fill="#E8D5B7" opacity="0.6"/></g><path d="M85 458 Q110 442 135 450 Q155 436 178 445 Q198 432 220 442 Q238 430 258 440" fill="none" stroke="#F2A882" stroke-width="1.8" opacity="0.45"/><circle cx="98" cy="452" r="4" fill="#E8845C" opacity="0.6"/><circle cx="115" cy="448" r="3" fill="#F2A882" opacity="0.5"/><circle cx="142" cy="444" r="3.5" fill="#E8845C" opacity="0.55"/><circle cx="165" cy="440" r="2.8" fill="#F2A882" opacity="0.48"/><circle cx="185" cy="438" r="3.5" fill="#E8845C" opacity="0.5"/><circle cx="210" cy="436" r="3" fill="#F2A882" opacity="0.42"/><circle cx="240" cy="434" r="2.5" fill="#E8845C" opacity="0.45"/><path d="M680 452 Q705 442 728 448 Q748 435 770 444" fill="none" stroke="#F2A882" stroke-width="1.5" opacity="0.38"/><circle cx="695" cy="446" r="2.5" fill="#E8845C" opacity="0.48"/><circle cx="718" cy="442" r="3" fill="#F2A882" opacity="0.42"/><circle cx="748" cy="438" r="2.8" fill="#E8845C" opacity="0.4"/><path d="M380 475 Q382 465 384 475 Q386 462 388 475 Q390 468 392 475" fill="none" stroke="#4A7C59" stroke-width="1.2" opacity="0.3"/><path d="M520 478 Q522 468 524 478 Q526 465 528 478" fill="none" stroke="#4A7C59" stroke-width="1" opacity="0.25"/></g></g></svg>